# xmcd
#
# Track frame offsets:
#	150
#	15828
#	30935
#	51608
#	66810
#	78150
#	91673
#	104980
#	119935
#	136043
#	152023
#	164850
#	180135
#	197003
#	217663
#	233238
#	250358
#	262540
#	273938
#	288925
#
# Disc length: 3989 seconds
#
# Revision: 1
# Processed by: cddbd v1.5.1PL0 Copyright (c) Steve Scherf et al.
# Submitted via: CDex 1.50Beta5
#
DISCID=080f9314
DTITLE=Various Artist - 思い出のヒット歌謡大全集 #Disc.01
DYEAR=1900
DGENRE=Folk
TTITLE0=勝手にしやがれ
TTITLE1=時の過ぎゆくままに
TTITLE2=Tokio
TTITLE3=危険な二人
TTITLE4=ひなげしの花：アグネス・チャン
TTITLE5=ポケットいっぱいの秘密：アグネス・チャン
TTITLE6=わたしの城下町
TTITLE7=瀬戸の花嫁
TTITLE8=二人でお酒を
TTITLE9=メランコリー
TTITLE10=経験
TTITLE11=積木の部屋
TTITLE12=愛の園
TTITLE13=シクラメンのかほり
TTITLE14=何も云わないで
TTITLE15=逢いたくて　逢いたくて
TTITLE16=恋のバカンス：ザ・ピ-ナッツ
TTITLE17=恋のフ-ガ：ザ・ピ-ナッツ
TTITLE18=君といつまでも
TTITLE19=お嫁においで
EXTD=
EXTT0=
EXTT1=
EXTT2=
EXTT3=
EXTT4=
EXTT5=
EXTT6=
EXTT7=
EXTT8=
EXTT9=
EXTT10=
EXTT11=
EXTT12=
EXTT13=
EXTT14=
EXTT15=
EXTT16=
EXTT17=
EXTT18=
EXTT19=
PLAYORDER=
